PathFileType	4	(X/Y/Z)	D:\TRACE\spot_10-12-23\spot_arm_motion_3_3-platform.trc
DataRate	CameraRate	NumFrames	NumMarkers	Units	OrigDataRate	OrigDataStartFrame	OrigNumFrames
100.00	100.00	      72	5	mm	100.00	4376	      7000
Frame#	Time	Left_Front			Right_Front			Left_Aft			Right_Aft			Post			
		X1	Y1	Z1	X2	Y2	Z2	X3	Y3	Z3	X4	Y4	Z4	X5	Y5	Z5	

4376	43.750	-785.04364	-64.70728	-654.65466	787.29437	-59.12083	-647.69812	-702.41431	52.04946	477.37372	714.81995	65.55693	563.06885	-2.24923	636.27271	-1047.71680	
4377	43.760	-785.18488	-64.99338	-654.76233	787.15662	-59.70396	-647.84851	-702.49731	52.26526	477.20380	714.74841	65.89980	562.87469	-2.13529	635.77576	-1048.09900	
4378	43.770	-785.21838	-65.29974	-654.75952	787.22021	-60.09920	-647.87128	-702.52698	52.53870	477.02707	714.76514	66.23419	562.77185	-1.83454	634.92560	-1048.38464	
4379	43.780	-785.22742	-65.58048	-654.77673	787.32910	-60.46158	-647.92395	-702.50800	52.69572	477.05237	714.76575	66.57380	562.70227	-2.18750	634.30579	-1048.76978	
4380	43.790	-785.12909	-66.04312	-654.81573	787.40149	-60.82175	-647.90778	-702.58923	53.02403	476.90710	714.70233	66.85019	562.57013	-2.33518	633.93799	-1049.31372	
4381	43.800	-785.14172	-66.34100	-654.90027	787.43439	-61.17777	-648.02124	-702.44604	53.16798	476.98801	714.60126	67.08476	562.40973	-2.29271	633.40558	-1050.04431	
4382	43.810	-785.20660	-66.59908	-654.95166	787.41418	-61.48753	-648.02728	-702.41296	53.42929	476.89334	714.47797	67.32027	562.30225	-2.18250	632.68677	-1050.49866	
4383	43.820	-785.02594	-67.39062	-654.90479	787.50262	-61.73241	-648.03497	-702.40283	53.80719	476.76392	714.52368	67.68787	562.09784	-2.26787	631.97986	-1050.83289	
4384	43.830	-785.04999	-67.93443	-654.86786	787.45825	-62.05176	-648.03247	-702.42590	54.07483	476.38773	714.60168	67.97634	561.94476	-2.14026	631.39490	-1051.11804	
4385	43.840	-785.05957	-68.06816	-655.06653	787.27997	-62.72623	-648.22430	-702.33801	54.34128	476.30856	714.64197	68.21496	561.84528	-2.00772	630.71320	-1051.57886	
4386	43.850	-785.17737	-68.34309	-655.04004	787.19373	-63.23218	-648.34332	-702.26837	54.60423	476.19986	714.75592	68.41772	561.72070	-2.05600	630.11554	-1052.13025	
4387	43.860	-785.21497	-68.58276	-655.09918	787.36566	-63.56737	-648.34491	-702.10107	54.87144	476.09100	714.79163	68.75714	561.57159	-1.91809	629.42853	-1052.75635	
4388	43.870	-785.32544	-68.92226	-655.07544	787.53687	-63.95428	-648.34473	-702.11993	55.14392	475.98337	714.92535	69.13733	561.46704	-1.98463	628.78394	-1053.09644	
4389	43.880	-785.27551	-69.28869	-655.14954	787.70630	-64.35847	-648.36731	-702.24670	55.46251	475.81744	715.00269	69.54562	561.43829	-1.73456	628.12140	-1053.50378	
4390	43.890	-784.98163	-69.92078	-655.24988	787.82782	-64.62538	-648.37262	-702.19720	55.66507	475.71671	715.00031	69.84171	561.34070	-1.82334	627.56317	-1054.05652	
4391	43.900	-784.74561	-70.51139	-655.31116	787.84015	-64.91552	-648.36414	-702.13306	55.85441	475.56238	715.13281	70.18866	561.18640	-1.71627	626.86261	-1054.92603	
4392	43.910	-784.64960	-70.98640	-655.33826	787.72687	-65.33761	-648.56012	-701.94141	55.98408	475.40231	715.19177	70.56959	561.01678	-1.73404	626.21802	-1055.35547	
4393	43.920	-784.58881	-71.32667	-655.36945	787.63300	-65.82545	-648.69171	-701.83246	56.15763	475.38669	715.31561	70.87130	560.88654	-1.81564	625.51154	-1055.77515	
4394	43.930	-784.52972	-71.66755	-655.40021	787.69971	-66.33988	-648.62970	-702.03333	56.46036	475.30942	715.39111	71.14983	560.74481	-1.54448	624.89319	-1056.19763	
4395	43.940	-784.34631	-72.16312	-655.56763	787.79077	-66.85228	-648.69617	-702.00720	56.78953	475.23251	715.39075	71.35727	560.55267	-1.79386	624.53168	-1056.91626	
4396	43.950	-784.30884	-72.48189	-655.62933	787.96832	-67.19540	-648.76434	-701.90997	57.18026	475.06638	715.42340	71.58115	560.36194	-1.16811	623.79810	-1057.45996	
4397	43.960	-784.03015	-73.02759	-655.71918	788.14056	-67.46127	-648.77460	-701.78888	57.50594	474.87570	715.51868	71.87805	560.20825	-1.46939	623.02045	-1057.99353	
4398	43.970	-783.88525	-73.59046	-655.78900	788.18488	-67.72272	-648.87183	-701.76544	57.85850	474.74582	715.60620	72.21347	560.09290	-1.06389	622.22144	-1058.49487	
4399	43.980	-783.56573	-74.05600	-656.04688	788.29248	-68.04960	-648.85669	-701.64539	58.11522	474.59491	715.56940	72.49091	560.00116	-1.06765	621.81909	-1058.99475	
4400	43.990	-783.83008	-74.09512	-655.83459	788.37689	-68.42685	-648.88507	-701.55847	58.31721	474.49979	715.62793	72.77134	559.93854	-0.93698	621.25726	-1059.69629	
4401	44.000	-783.90411	-74.28303	-655.88391	788.50024	-68.83709	-648.96375	-701.52655	58.50355	474.51169	715.75793	73.12421	559.85132	-1.11196	620.62897	-1060.22620	
4402	44.010	-783.91693	-74.56955	-655.92358	788.57098	-69.28502	-649.01013	-701.40894	58.68613	474.31323	715.91559	73.39890	559.76221	-0.99983	619.99811	-1060.78699	
4403	44.020	-783.72559	-75.19269	-655.95276	788.65039	-69.74199	-649.05676	-701.35492	58.89084	474.13297	716.01740	73.72088	559.62488	-0.73539	619.27728	-1061.19238	
4404	44.030	-783.48761	-75.81847	-655.95148	788.68878	-70.25744	-649.15332	-701.22992	59.02042	474.02512	716.15778	74.03223	559.51575	-0.35380	618.77454	-1061.65283	
4405	44.040	-783.35107	-76.24734	-655.98950	788.78613	-70.59168	-649.20209	-701.01465	59.14935	473.97885	716.32092	74.34394	559.43231	-0.46079	618.21539	-1062.08948	
4406	44.050	-783.43890	-76.07504	-656.08667	788.82300	-70.75986	-649.26837	-700.83142	59.31445	473.91397	716.43646	74.63743	559.32068	-0.45767	617.55585	-1062.69116	
4407	44.060	-783.38391	-76.37293	-656.11621	788.90723	-71.00746	-649.32629	-700.82507	59.67165	473.65881	716.52234	74.83654	559.17773	-0.37064	617.04291	-1063.18445	
4408	44.070	-783.32104	-76.61997	-656.08752	789.14362	-71.34240	-649.34332	-700.64868	59.93626	473.59235	716.61462	75.02432	559.04059	-0.00661	616.60089	-1063.66565	
4409	44.080	-783.27710	-76.90288	-656.05676	789.27081	-71.62367	-649.30035	-700.58490	60.22105	473.46918	716.76630	75.24886	558.90338	0.08160	616.12286	-1063.96924	
4410	44.090	-783.11981	-77.31435	-656.10364	789.45837	-71.92190	-649.19836	-700.51636	60.43819	473.37503	716.85144	75.43472	558.76880	0.27023	615.46155	-1064.43726	
4411	44.100	-783.17065	-77.46643	-656.07001	789.57043	-72.20954	-649.19720	-700.45538	60.59694	473.36804	716.91309	75.59286	558.66870	0.29423	615.08258	-1064.83228	
4412	44.110	-782.98407	-77.80811	-656.16791	789.82733	-72.58410	-649.26904	-700.22583	60.69779	473.26685	717.08081	75.88768	558.51001	0.29931	614.64496	-1065.45129	
4413	44.120	-782.71326	-78.17351	-656.23944	789.82764	-72.80504	-649.32520	-700.24670	60.89010	473.16534	717.22498	76.08630	558.40912	0.46106	614.11584	-1065.88574	
4414	44.130	-782.46851	-78.56936	-656.35132	789.97461	-73.13627	-649.41504	-700.15753	61.09219	473.04147	717.34833	76.29996	558.33435	0.64754	613.64282	-1066.18982	
4415	44.140	-782.32123	-78.85425	-656.40552	790.06879	-73.46796	-649.53284	-699.96960	61.31836	472.95364	717.45020	76.50945	558.28772	0.77712	613.14722	-1066.44287	
4416	44.150	-782.20673	-79.09097	-656.50439	790.27960	-73.70798	-649.57892	-699.73462	61.52559	472.88995	717.54565	76.67485	558.25409	0.68598	612.84784	-1066.72095	
4417	44.160	-782.07477	-79.36639	-656.49634	790.37939	-73.90366	-649.58746	-699.52063	61.68019	472.81140	717.69049	76.86643	558.23041	0.85754	612.56604	-1066.94287	
4418	44.170	-781.80994	-79.69710	-656.53040	790.56360	-74.12739	-649.62213	-699.33142	61.79604	472.79480	717.87726	77.09000	558.21234	1.34138	612.16559	-1067.32483	
4419	44.180	-781.56891	-79.99614	-656.49213	790.77777	-74.30824	-649.64008	-699.16248	61.89062	472.71396	718.06915	77.24210	558.14709	1.63877	611.75073	-1067.64246	
4420	44.190	-781.19666	-80.38957	-656.54999	791.00580	-74.53501	-649.64069	-698.99268	61.99334	472.68390	718.33636	77.43334	558.11670	1.53054	611.45074	-1067.91406	
4421	44.200	-781.03229	-80.64027	-656.53607	791.19305	-74.66790	-649.67206	-698.93030	62.05373	472.61792	718.52521	77.63623	558.01855	1.65166	611.10114	-1068.15723	
4422	44.210	-780.30157	-81.06136	-657.00336	791.28925	-74.81269	-649.70435	-698.82434	62.09591	472.54825	718.70740	77.82082	557.93329	1.79097	610.84808	-1068.41443	
4423	44.220	-780.95996	-80.61388	-656.57635	791.40741	-74.93096	-649.69104	-698.67981	62.20675	472.46240	718.96753	77.93732	557.89374	1.92442	610.67401	-1068.57935	
4424	44.230	-780.94263	-80.62186	-656.56494	791.50830	-75.02423	-649.68665	-698.54260	62.26808	472.39914	719.12561	77.98624	557.87579	2.07505	610.42780	-1068.81641	
4425	44.240	-780.86621	-80.67558	-656.61078	791.62128	-75.08583	-649.69360	-698.31042	62.42504	472.41226	719.21039	78.06380	557.86090	2.28356	610.20789	-1069.08667	
4426	44.250	-780.23511	-81.08241	-656.95380	791.70984	-75.12693	-649.73627	-698.11829	62.44308	472.36795	719.28320	78.07694	557.83160	2.43249	610.00488	-1069.25989	
4427	44.260	-780.28851	-80.91991	-656.87482	791.83142	-75.22679	-649.77234	-697.96979	62.53818	472.37753	719.38739	78.08710	557.80359	2.58211	609.84393	-1069.35388	
4428	44.270	-780.60742	-80.80329	-656.62170	791.98242	-75.34955	-649.82501	-697.86066	62.58205	472.34183	719.50079	78.15392	557.76398	2.69050	609.75604	-1069.40381	
4429	44.280	-780.32080	-80.90482	-656.67584	792.10718	-75.42484	-649.87793	-697.72510	62.64757	472.33145	719.61426	78.20616	557.72803	2.81524	609.65918	-1069.45569	
4430	44.290	-780.22601	-80.87796	-656.64349	792.15656	-75.45657	-649.88409	-697.59149	62.69046	472.32242	719.73822	78.24995	557.67914	2.92513	609.56512	-1069.48621	
4431	44.300	-779.69470	-81.14092	-656.89142	792.19971	-75.47507	-649.91394	-697.37030	62.68848	472.25061	719.87152	78.32727	557.63702	3.07363	609.47375	-1069.58728	
4432	44.310	-780.17767	-80.86167	-656.52917	792.27502	-75.48837	-649.95642	-697.18573	62.70294	472.27289	719.93604	78.35717	557.62738	3.17874	609.46063	-1069.59302	
4433	44.320	-780.04266	-80.87531	-656.55957	792.42126	-75.57539	-649.94281	-697.05640	62.68354	472.26379	720.10394	78.33373	557.61163	3.45899	609.39691	-1069.65564	
4434	44.330	-779.86401	-80.85468	-656.56097	792.48383	-75.55272	-649.95679	-696.98743	62.63574	472.29703	720.20636	78.32941	557.63153	3.55898	609.49298	-1069.62646	
4435	44.340	-779.55798	-80.96104	-656.60413	792.62610	-75.57653	-649.94305	-696.85193	62.53989	472.29861	720.41254	78.27787	557.63580	3.72750	609.54590	-1069.61865	
4436	44.350	-779.36572	-80.92297	-656.63635	792.80981	-75.59764	-649.93408	-696.78650	62.49590	472.29279	720.64362	78.21609	557.64569	3.80633	609.69067	-1069.54431	
4437	44.360	-778.99927	-81.03599	-656.63684	792.99805	-75.51341	-649.97229	-696.66144	62.43790	472.33228	720.84338	78.18322	557.67072	3.96033	609.78546	-1069.43616	
4438	44.370	-778.74426	-81.01237	-656.68005	793.17706	-75.43596	-649.92822	-696.57849	62.43586	472.37091	721.01184	78.14809	557.69952	4.14067	609.91162	-1069.37610	
4439	44.380	-778.58362	-81.00290	-656.64972	793.44562	-75.28698	-649.89240	-696.43091	62.38210	472.40207	721.18750	78.08684	557.71796	4.34074	610.08649	-1069.23340	
4440	44.390	-778.33228	-80.93619	-656.58740	793.63843	-75.13905	-649.80829	-696.19824	62.29037	472.52472	721.28668	78.01923	557.74017	4.55857	610.30450	-1069.09827	
4441	44.400	-778.27148	-80.83131	-656.54462	793.92859	-74.92127	-649.72852	-696.07257	62.21400	472.57187	721.49738	77.95621	557.81677	4.79935	610.55267	-1068.88562	
4442	44.410	-778.07300	-80.76784	-656.49225	794.12628	-74.57385	-649.74347	-695.88281	62.14624	472.60754	721.65100	77.85477	557.86615	5.15823	610.76764	-1068.62476	
4443	44.420	-777.96930	-80.51947	-656.48688	794.27435	-74.27499	-649.72418	-695.70532	62.06915	472.63779	721.79126	77.78246	557.91217	5.25983	610.96936	-1068.49268	
4444	44.430	-777.91797	-80.22997	-656.46448	794.39069	-74.15292	-649.76819	-695.60272	61.98349	472.69873	721.93835	77.60551	558.02759	5.31699	611.34131	-1068.34277	
4445	44.440	-777.83252	-79.97317	-656.44659	794.48114	-74.03083	-649.70184	-695.47522	61.85402	472.76379	722.04974	77.31086	558.23981	5.19160	611.80164	-1068.12903	
4446	44.450	-777.76636	-79.71808	-656.42383	794.60620	-73.92303	-649.73486	-695.40442	61.65952	472.84393	722.12726	77.07507	558.32764	5.17808	612.13214	-1067.96118	
4447	44.460	-777.74286	-79.39352	-656.37561	794.68927	-73.82496	-649.71460	-695.25903	61.50938	472.88956	722.15308	76.90998	558.37622	5.34025	612.75140	-1067.89795	
